# xmcd
#
# Track frame offsets:
#	150
#	15247
#	31194
#	51267
#	62162
#	73210
#	90665
#	106967
#	126227
#	139792
#
# Disc length: 2006 seconds
#
# Revision: 0
# Processed by: cddbd v1.5.1PL0 Copyright (c) Steve Scherf et al.
# Submitted via: EasyCDDAExtractor 8.1.4.1
#
DISCID=8607d40a
DTITLE=Nilton e Carlos Miranda - Servos do Rei
DYEAR=2000
DGENRE=Gospel
TTITLE0=Explosão
TTITLE1=Orando no Monte
TTITLE2=Taça de Lágrimas
TTITLE3=Voar para a Glória
TTITLE4=Perfeição
TTITLE5=Guerreiro Gideão
TTITLE6=Conflito Mundial
TTITLE7=Princípio e Fim
TTITLE8=Manda Fogo
TTITLE9=Nilton e Carlos Miranda
EXTD=
EXTT0=
EXTT1=
EXTT2=
EXTT3=
EXTT4=
EXTT5=
EXTT6=
EXTT7=
EXTT8=
EXTT9=
PLAYORDER=
